# xmcd
#
# Track frame offsets: 
#        150
#        13503
#        29662
#        43743
#        56419
#        73614
#        83533
#        97617
#        114916
#        131760
#        146829
#        158858
#
# Disc length: 2380 seconds
#
# Revision: 0
# Processed by: cddbd v1.5.2PL0 Copyright (c) Steve Scherf et al.
# Submitted via: ExactAudioCopyFreeDBPlugin 1.0
#
DISCID=97094a0c
DTITLE=Double Vision - Mayday
DYEAR=2018
DGENRE=Blues Rock
TTITLE0=S.O.G.
TTITLE1=Wild Cat
TTITLE2=Mayday
TTITLE3=Light O' Mine
TTITLE4=Why You Gonna Be So Cold
TTITLE5=You Have To Run
TTITLE6=Two Stroke Engine Motor Cycle Club
TTITLE7=I See Clear
TTITLE8=Dying Breath
TTITLE9=Free At Last
TTITLE10=Turn The Lights Down Low
TTITLE11=Heroes
EXTD=
EXTT0=
EXTT1=
EXTT2=
EXTT3=
EXTT4=
EXTT5=
EXTT6=
EXTT7=
EXTT8=
EXTT9=
EXTT10=
EXTT11=
PLAYORDER=
